<svg width="32" height="32" viewBox="0 0 32 32" fill="none" xmlns="http://www.w3.org/2000/svg">
<path d="M26.6667 12.0003C25.6064 6.68639 20.6837 2.66699 14.7724 2.66699C8.08732 2.66699 2.66667 7.80727 2.66667 14.147C2.66667 17.1931 3.91759 19.9609 5.95807 22.0147C6.40732 22.467 6.70727 23.0849 6.58621 23.7207C6.38643 24.7605 5.93368 25.7303 5.27073 26.5386C7.01497 26.8602 8.82863 26.5706 10.384 25.7506C10.9339 25.4609 11.2088 25.3159 11.4028 25.2865C11.5386 25.2659 11.7155 25.2851 12 25.3339" stroke="#1A1A1A" stroke-width="1.5" stroke-linecap="round" stroke-linejoin="round"/>
<path d="M14.6667 21.6826C14.6667 25.5569 17.9504 28.6982 22 28.6982C22.4761 28.6987 22.9509 28.6547 23.4187 28.567C23.7553 28.5037 23.9237 28.4721 24.0412 28.4901C24.1587 28.5079 24.3253 28.5966 24.6584 28.7737C25.6005 29.2747 26.6992 29.4517 27.7559 29.2551C27.3543 28.7613 27.08 28.1686 26.9589 27.5331C26.8856 27.1446 27.0673 26.767 27.3395 26.4906C28.5756 25.2354 29.3333 23.5441 29.3333 21.6826C29.3333 17.8083 26.0496 14.667 22 14.667C17.9504 14.667 14.6667 17.8083 14.6667 21.6826Z" stroke="#1A1A1A" stroke-width="1.5" stroke-linejoin="round"/>
</svg>
