<svg width="40" height="40" viewBox="0 0 40 40" fill="none" xmlns="http://www.w3.org/2000/svg">
<rect x="0.416667" y="0.416667" width="39.1667" height="39.1667" rx="6.25" stroke="#FAFAFA" stroke-width="0.833333" stroke-dasharray="10 10"/>
<path d="M19.4721 19.7173C19.501 19.6369 19.5008 19.5488 19.4714 19.4685C19.4421 19.3882 19.3854 19.3208 19.3114 19.278L18.6173 18.8773L19.3677 18.6763C19.4452 18.6555 19.5137 18.6097 19.5626 18.5461C19.6114 18.4824 19.6379 18.4044 19.6379 18.3241V17.8634H20.741C21.0405 17.8634 21.3107 17.7096 21.4638 17.4519C21.6198 17.1892 21.6257 16.872 21.4794 16.6033L19.6373 13.2209C19.5943 9.82243 17.2106 7.33186 13.8111 7.15014C11.7518 7.03993 10.1131 7.52279 8.93985 8.58488C7.8486 9.57274 7.22938 11.0184 7.14901 12.7656C6.99188 16.1818 8.23047 17.8631 9.22568 19.214C9.81771 20.0177 10.2854 20.6525 10.2769 21.4527V24.0291C10.2769 24.1258 10.3153 24.2186 10.3837 24.2869C10.452 24.3553 10.5448 24.3937 10.6415 24.3937H16.4246C16.5213 24.3937 16.6141 24.3553 16.6824 24.2869C16.7508 24.2186 16.7892 24.1258 16.7892 24.0291V21.7963C17.9944 21.6574 19.0671 20.8415 19.4721 19.7173ZM16.4246 21.0882C16.3279 21.0882 16.2352 21.1266 16.1668 21.1949C16.0985 21.2633 16.0601 21.356 16.0601 21.4527V23.6646H11.006L11.0059 21.4566C11.0171 20.4163 10.459 19.6587 9.81271 18.7815C8.88573 17.5232 7.73214 15.9572 7.87735 12.7991C7.9486 11.2503 8.48521 9.97998 9.42917 9.1254C10.453 8.19847 11.914 7.77873 13.7722 7.87821C16.8446 8.04243 18.9088 10.2272 18.9088 13.3147C18.9088 13.3756 18.9241 13.4356 18.9532 13.489L20.8391 16.952C20.85 16.9715 20.8556 16.9936 20.8552 17.016C20.8549 17.0384 20.8486 17.0602 20.837 17.0794C20.8222 17.1044 20.7934 17.1342 20.7411 17.1342H19.2734C19.1767 17.1342 19.084 17.1726 19.0156 17.241C18.9472 17.3094 18.9088 17.4021 18.9088 17.4988V18.0444L17.5785 18.4008C17.5089 18.4195 17.4463 18.4584 17.3988 18.5126C17.3513 18.5668 17.3209 18.6339 17.3115 18.7054C17.3021 18.7769 17.3141 18.8495 17.3459 18.9142C17.3778 18.9789 17.4281 19.0326 17.4905 19.0687L18.6641 19.7463C18.2471 20.5384 17.351 21.0882 16.4246 21.0882ZM25.7391 21.3929L24.5704 17.8387L23.2148 21.4908C23.1879 21.5633 23.1387 21.6254 23.0742 21.668C23.0096 21.7107 22.9332 21.7317 22.856 21.7281C22.7787 21.7245 22.7046 21.6964 22.6444 21.6479C22.5841 21.5994 22.5409 21.533 22.5208 21.4583L21.9465 19.3145H20.2161C20.1194 19.3145 20.0267 19.276 19.9583 19.2077C19.8899 19.1393 19.8515 19.0466 19.8515 18.9499C19.8515 18.8532 19.8899 18.7604 19.9583 18.6921C20.0267 18.6237 20.1194 18.5853 20.2161 18.5853H22.2262C22.3065 18.5853 22.3845 18.6118 22.4481 18.6606C22.5118 18.7095 22.5576 18.778 22.5784 18.8555L22.9292 20.1648L24.2495 16.6079C24.2758 16.537 24.3235 16.4761 24.386 16.4335C24.4484 16.391 24.5226 16.3689 24.5982 16.3703C24.6737 16.3717 24.747 16.3966 24.8078 16.4415C24.8686 16.4864 24.914 16.5491 24.9376 16.6209L26.1176 20.2095L26.7709 18.5626C26.7966 18.4979 26.8403 18.4419 26.8968 18.4012C26.9533 18.3605 27.0202 18.3368 27.0897 18.333C27.1593 18.329 27.2285 18.3451 27.2892 18.3793C27.3498 18.4136 27.3994 18.4645 27.4319 18.5261L28.2051 19.9829C28.2275 20.0252 28.2414 20.0715 28.2459 20.1192C28.2505 20.1668 28.2456 20.2149 28.2316 20.2607C28.2176 20.3065 28.1946 20.349 28.1641 20.3859C28.1337 20.4229 28.0962 20.4534 28.0539 20.4759C27.8763 20.5703 27.6554 20.5026 27.5609 20.3248L27.1577 19.565L26.4243 21.4136C26.3677 21.5562 26.2266 21.6488 26.0744 21.6435C25.9996 21.6413 25.9272 21.616 25.8672 21.5712C25.8072 21.5263 25.7625 21.4641 25.7391 21.3929ZM32.8648 24.4985V26.1163C32.8648 28.0938 31.35 29.7237 29.4199 29.9079V32.1349H30.7382C30.8349 32.1349 30.9277 32.1733 30.996 32.2417C31.0644 32.3101 31.1028 32.4028 31.1028 32.4995C31.1028 32.5962 31.0644 32.6889 30.996 32.7573C30.9277 32.8257 30.8349 32.8641 30.7382 32.8641H27.3725C27.2758 32.8641 27.183 32.8257 27.1147 32.7573C27.0463 32.6889 27.0079 32.5962 27.0079 32.4995C27.0079 32.4028 27.0463 32.3101 27.1147 32.2417C27.183 32.1733 27.2758 32.1349 27.3725 32.1349H28.6908V29.9079C26.7607 29.7238 25.2459 28.0939 25.2459 26.1163V24.4985C25.2459 24.4018 25.2844 24.309 25.3527 24.2407C25.4211 24.1723 25.5138 24.1339 25.6105 24.1339C25.7072 24.1339 25.7999 24.1723 25.8683 24.2407C25.9367 24.309 25.9751 24.4018 25.9751 24.4985V26.1163C25.9751 27.8148 27.3569 29.1966 29.0554 29.1966C30.7539 29.1966 32.1357 27.8148 32.1357 26.1163V24.4985C32.1351 24.4502 32.1441 24.4024 32.1622 24.3576C32.1802 24.3129 32.207 24.2722 32.2409 24.2379C32.2748 24.2035 32.3152 24.1763 32.3597 24.1577C32.4042 24.1391 32.452 24.1295 32.5002 24.1295C32.5485 24.1295 32.5962 24.1391 32.6408 24.1577C32.6853 24.1763 32.7257 24.2035 32.7596 24.2379C32.7935 24.2722 32.8202 24.3129 32.8383 24.3576C32.8564 24.4024 32.8654 24.4502 32.8648 24.4985ZM29.0553 20.8331C27.9263 20.8331 27.0078 21.7516 27.0078 22.8806V26.1164C27.0078 27.2453 27.9263 28.1639 29.0553 28.1639C30.1843 28.1639 31.1028 27.2454 31.1028 26.1164V22.8806C31.1028 21.7516 30.1843 20.8331 29.0553 20.8331ZM29.0553 21.5623C29.7822 21.5623 30.3736 22.1536 30.3736 22.8806V24.1339H27.737V22.8806C27.737 22.1537 28.3284 21.5623 29.0553 21.5623ZM29.0553 27.4347C28.3284 27.4347 27.737 26.8433 27.737 26.1163V24.8631H30.3736V26.1163C30.3736 26.8433 29.7822 27.4347 29.0553 27.4347ZM27.8072 14.4987C27.8072 14.402 27.8457 14.3093 27.914 14.2409C27.9824 14.1726 28.0751 14.1341 28.1718 14.1341H29.3081C29.4048 14.1341 29.4976 14.1726 29.5659 14.2409C29.6343 14.3093 29.6727 14.402 29.6727 14.4987C29.6727 14.5954 29.6343 14.6882 29.5659 14.7565C29.4976 14.8249 29.4048 14.8633 29.3081 14.8633H28.1718C28.0751 14.8633 27.9824 14.8249 27.914 14.7565C27.8457 14.6882 27.8072 14.5954 27.8072 14.4987ZM29.9714 13.4709V12.3346C29.9714 12.2379 30.0098 12.1451 30.0782 12.0768C30.1466 12.0084 30.2393 11.97 30.336 11.97C30.4327 11.97 30.5254 12.0084 30.5938 12.0768C30.6622 12.1451 30.7006 12.2379 30.7006 12.3346V13.4709C30.7006 13.5676 30.6622 13.6603 30.5938 13.7287C30.5254 13.7971 30.4327 13.8355 30.336 13.8355C30.2393 13.8355 30.1466 13.7971 30.0782 13.7287C30.0098 13.6603 29.9714 13.5676 29.9714 13.4709ZM29.9714 16.6629V15.5265C29.9714 15.4298 30.0098 15.3371 30.0782 15.2687C30.1466 15.2004 30.2393 15.162 30.336 15.162C30.4327 15.162 30.5254 15.2004 30.5938 15.2687C30.6622 15.3371 30.7006 15.4298 30.7006 15.5265V16.6629C30.7006 16.7596 30.6622 16.8523 30.5938 16.9207C30.5254 16.9891 30.4327 17.0275 30.336 17.0275C30.2393 17.0275 30.1466 16.9891 30.0782 16.9207C30.0098 16.8523 29.9714 16.7596 29.9714 16.6629ZM30.9993 14.4987C30.9993 14.402 31.0377 14.3093 31.1061 14.2409C31.1744 14.1726 31.2672 14.1341 31.3639 14.1341H32.5002C32.5969 14.1341 32.6896 14.1726 32.758 14.2409C32.8264 14.3093 32.8648 14.402 32.8648 14.4987C32.8648 14.5954 32.8264 14.6882 32.758 14.7565C32.6896 14.8249 32.5969 14.8633 32.5002 14.8633H31.3639C31.2672 14.8633 31.1744 14.8249 31.1061 14.7565C31.0377 14.6882 30.9993 14.5954 30.9993 14.4987ZM24.3793 11.8279V10.6916C24.3793 10.5949 24.4177 10.5022 24.4861 10.4338C24.5544 10.3654 24.6472 10.327 24.7439 10.327C24.8405 10.327 24.9333 10.3654 25.0017 10.4338C25.07 10.5022 25.1084 10.5949 25.1084 10.6916V11.8279C25.1084 11.9246 25.07 12.0174 25.0017 12.0857C24.9333 12.1541 24.8405 12.1925 24.7439 12.1925C24.6472 12.1925 24.5544 12.1541 24.4861 12.0857C24.4177 12.0174 24.3793 11.9246 24.3793 11.8279ZM25.4071 9.66373C25.4071 9.56704 25.4455 9.4743 25.5139 9.40593C25.5822 9.33756 25.675 9.29915 25.7717 9.29915H26.908C27.0047 9.29915 27.0975 9.33756 27.1658 9.40593C27.2342 9.4743 27.2726 9.56704 27.2726 9.66373C27.2726 9.76042 27.2342 9.85316 27.1658 9.92153C27.0975 9.9899 27.0047 10.0283 26.908 10.0283H25.7717C25.675 10.0283 25.5822 9.9899 25.5139 9.92153C25.4455 9.85316 25.4071 9.76042 25.4071 9.66373ZM24.3793 8.63597V7.49956C24.3793 7.40287 24.4177 7.31014 24.4861 7.24176C24.5544 7.17339 24.6472 7.13498 24.7439 7.13498C24.8405 7.13498 24.9333 7.17339 25.0017 7.24176C25.07 7.31014 25.1084 7.40287 25.1084 7.49956V8.63597C25.1084 8.73266 25.07 8.8254 25.0017 8.89377C24.9333 8.96214 24.8405 9.00055 24.7439 9.00055C24.6472 9.00055 24.5544 8.96214 24.4861 8.89377C24.4177 8.8254 24.3793 8.73266 24.3793 8.63597ZM22.2151 9.66373C22.2151 9.56704 22.2535 9.4743 22.3219 9.40593C22.3903 9.33756 22.483 9.29915 22.5797 9.29915H23.716C23.8127 9.29915 23.9055 9.33756 23.9738 9.40593C24.0422 9.4743 24.0806 9.56704 24.0806 9.66373C24.0806 9.76042 24.0422 9.85316 23.9738 9.92153C23.9055 9.9899 23.8127 10.0283 23.716 10.0283H22.5797C22.483 10.0283 22.3903 9.9899 22.3219 9.92153C22.2535 9.85316 22.2151 9.76042 22.2151 9.66373ZM22.2344 27.868C22.2344 27.9647 22.196 28.0574 22.1276 28.1258C22.0592 28.1942 21.9665 28.2326 21.8698 28.2326H20.7334C20.6367 28.2326 20.544 28.1942 20.4756 28.1258C20.4073 28.0574 20.3689 27.9647 20.3689 27.868C20.3689 27.7713 20.4073 27.6786 20.4756 27.6102C20.544 27.5418 20.6367 27.5034 20.7334 27.5034H21.8698C21.9665 27.5034 22.0592 27.5418 22.1276 27.6102C22.196 27.6786 22.2344 27.7713 22.2344 27.868ZM20.0703 25.7038V26.8402C20.0703 26.9369 20.0319 27.0296 19.9635 27.098C19.8951 27.1664 19.8024 27.2048 19.7057 27.2048C19.609 27.2048 19.5163 27.1664 19.4479 27.098C19.3795 27.0296 19.3411 26.9369 19.3411 26.8402V25.7038C19.3411 25.6071 19.3795 25.5144 19.4479 25.446C19.5163 25.3776 19.609 25.3392 19.7057 25.3392C19.8024 25.3392 19.8951 25.3776 19.9635 25.446C20.0319 25.5144 20.0703 25.6071 20.0703 25.7038ZM19.0424 27.868C19.0424 27.9647 19.004 28.0574 18.9356 28.1258C18.8672 28.1942 18.7745 28.2326 18.6778 28.2326H17.5415C17.4448 28.2326 17.352 28.1942 17.2837 28.1258C17.2153 28.0574 17.1769 27.9647 17.1769 27.868C17.1769 27.7713 17.2153 27.6786 17.2837 27.6102C17.352 27.5418 17.4448 27.5034 17.5415 27.5034H18.6778C18.7745 27.5034 18.8672 27.5418 18.9356 27.6102C19.004 27.6786 19.0424 27.7713 19.0424 27.868ZM20.0703 28.8958V30.0322C20.0703 30.1289 20.0319 30.2216 19.9635 30.29C19.8951 30.3583 19.8024 30.3967 19.7057 30.3967C19.609 30.3967 19.5163 30.3583 19.4479 30.29C19.3795 30.2216 19.3411 30.1289 19.3411 30.0322V28.8958C19.3411 28.7991 19.3795 28.7064 19.4479 28.638C19.5163 28.5696 19.609 28.5312 19.7057 28.5312C19.8024 28.5312 19.8951 28.5696 19.9635 28.638C20.0319 28.7064 20.0703 28.7991 20.0703 28.8958ZM12.1931 30.3354C12.1931 30.4321 12.1547 30.5248 12.0863 30.5932C12.018 30.6616 11.9252 30.7 11.8285 30.7H10.6922C10.5955 30.7 10.5028 30.6616 10.4344 30.5932C10.366 30.5248 10.3276 30.4321 10.3276 30.3354C10.3276 30.2387 10.366 30.146 10.4344 30.0776C10.5028 30.0092 10.5955 29.9708 10.6922 29.9708H11.8285C11.9252 29.9708 12.018 30.0092 12.0863 30.0776C12.1547 30.146 12.1931 30.2387 12.1931 30.3354ZM9.00115 30.3354C9.00115 30.4321 8.96274 30.5248 8.89436 30.5932C8.82599 30.6616 8.73326 30.7 8.63657 30.7H7.50021C7.40352 30.7 7.31078 30.6616 7.24241 30.5932C7.17404 30.5248 7.13563 30.4321 7.13563 30.3354C7.13563 30.2387 7.17404 30.146 7.24241 30.0776C7.31078 30.0092 7.40352 29.9708 7.50021 29.9708H8.63657C8.73326 29.9708 8.82599 30.0092 8.89436 30.0776C8.96274 30.146 9.00115 30.2387 9.00115 30.3354ZM10.029 28.1712V29.3075C10.029 29.3554 10.0196 29.4028 10.0013 29.4471C9.98294 29.4913 9.95608 29.5315 9.92223 29.5653C9.88837 29.5992 9.84818 29.626 9.80395 29.6444C9.75972 29.6627 9.71231 29.6721 9.66443 29.6721C9.61655 29.6721 9.56914 29.6627 9.52491 29.6444C9.48068 29.626 9.44049 29.5992 9.40663 29.5653C9.37278 29.5315 9.34592 29.4913 9.3276 29.4471C9.30928 29.4028 9.29985 29.3554 9.29985 29.3075V28.1712C9.29985 28.1233 9.30928 28.0759 9.3276 28.0317C9.34592 27.9874 9.37278 27.9472 9.40663 27.9134C9.44049 27.8795 9.48068 27.8527 9.52491 27.8343C9.56914 27.816 9.61655 27.8066 9.66443 27.8066C9.71231 27.8066 9.75972 27.816 9.80395 27.8343C9.84818 27.8527 9.88837 27.8795 9.92223 27.9134C9.95608 27.9472 9.98294 27.9874 10.0013 28.0317C10.0196 28.0759 10.029 28.1233 10.029 28.1712ZM10.029 31.3632V32.4996C10.029 32.5474 10.0196 32.5948 10.0013 32.6391C9.98294 32.6833 9.95608 32.7235 9.92223 32.7574C9.88837 32.7912 9.84818 32.8181 9.80395 32.8364C9.75972 32.8547 9.71231 32.8641 9.66443 32.8641C9.61655 32.8641 9.56914 32.8547 9.52491 32.8364C9.48068 32.8181 9.44049 32.7912 9.40663 32.7574C9.37278 32.7235 9.34592 32.6833 9.3276 32.6391C9.30928 32.5948 9.29985 32.5474 9.29985 32.4996V31.3632C9.29985 31.3153 9.30928 31.2679 9.3276 31.2237C9.34592 31.1795 9.37278 31.1393 9.40663 31.1054C9.44049 31.0716 9.48068 31.0447 9.52491 31.0264C9.56914 31.0081 9.61655 30.9986 9.66443 30.9986C9.71231 30.9986 9.75972 31.0081 9.80395 31.0264C9.84818 31.0447 9.88837 31.0716 9.92223 31.1054C9.95608 31.1393 9.98294 31.1795 10.0013 31.2237C10.0196 31.2679 10.029 31.3153 10.029 31.3632Z" fill="#FAFAFA"/>
</svg>
