<svg width="25" height="24" viewBox="0 0 25 24" fill="none" xmlns="http://www.w3.org/2000/svg">
<path d="M4.5 18.6458V8.05426C4.5 5.20025 4.5 3.77325 5.37868 2.88663C6.25736 2 7.67157 2 10.5 2H14.5C17.3284 2 18.7426 2 19.6213 2.88663C20.5 3.77325 20.5 5.20025 20.5 8.05426V18.6458C20.5 20.1575 20.5 20.9133 20.038 21.2108C19.2831 21.6971 18.1161 20.6774 17.5291 20.3073C17.0441 20.0014 16.8017 19.8485 16.5325 19.8397C16.2417 19.8301 15.9949 19.9768 15.4709 20.3073L13.56 21.5124C13.0445 21.8374 12.7868 22 12.5 22C12.2132 22 11.9555 21.8374 11.44 21.5124L9.52913 20.3073C9.04415 20.0014 8.80166 19.8485 8.53253 19.8397C8.24172 19.8301 7.99493 19.9768 7.47087 20.3073C6.88395 20.6774 5.71687 21.6971 4.96195 21.2108C4.5 20.9133 4.5 20.1575 4.5 18.6458Z" stroke="#1A1A1A" stroke-width="1.5" stroke-linecap="round" stroke-linejoin="round"/>
<path d="M11.5 11H8.5" stroke="#1A1A1A" stroke-width="1.5" stroke-linecap="round" stroke-linejoin="round"/>
<path d="M14.5 7H8.5" stroke="#1A1A1A" stroke-width="1.5" stroke-linecap="round" stroke-linejoin="round"/>
</svg>
