<svg width="32" height="32" viewBox="0 0 32 32" fill="none" xmlns="http://www.w3.org/2000/svg">
<path d="M22.6667 9.33366V14.667C22.6667 18.3489 19.6819 21.3337 16 21.3337C12.3181 21.3337 9.33333 18.3489 9.33333 14.667V9.33366C9.33333 5.65177 12.3181 2.66699 16 2.66699C19.6819 2.66699 22.6667 5.65177 22.6667 9.33366Z" stroke="#141B34" stroke-width="1.5"/>
<path d="M22.6667 9.33301H18.6667M22.6667 14.6663H18.6667" stroke="#141B34" stroke-width="1.5" stroke-linecap="round"/>
<path d="M26.6667 14.667C26.6667 20.5581 21.8911 25.3337 16 25.3337M16 25.3337C10.109 25.3337 5.33333 20.5581 5.33333 14.667M16 25.3337V29.3337M16 29.3337H20M16 29.3337H12" stroke="#141B34" stroke-width="1.5" stroke-linecap="round"/>
</svg>
